<svg width="130" height="130" viewBox="0 0 130 130" fill="none" xmlns="http://www.w3.org/2000/svg">
<g clip-path="url(#clip0)">
<path d="M65.5 0C29.6362 0 0.5 29.1362 0.5 65C0.5 100.864 29.6362 130 65.5 130C101.364 130 130.5 100.864 130.5 65C130.5 29.1362 101.364 0 65.5 0ZM65.5 4.0625C81.0513 4.0625 95.1847 9.92469 105.954 19.5081H25.0416C36.1635 9.55234 50.569 4.05228 65.4959 4.0625H65.5ZM26.5691 23.5706H104.435L65.5041 101.412L26.5691 23.5706ZM20.0081 24.5456V105.458C10.0523 94.3365 4.55228 79.931 4.5625 65.0041C4.5625 49.4528 10.4247 35.3194 20.0081 24.5497V24.5456ZM110.992 24.5456C120.948 35.6675 126.448 50.073 126.438 65C126.437 80.5513 120.575 94.6847 110.992 105.454V24.5456ZM24.0706 27.6331L63.4688 106.429H24.0706V27.6331ZM106.929 27.6331V106.429H67.5312L106.95 27.6331H106.929ZM25.0456 110.492H105.958C94.8272 120.457 80.4216 125.938 65.5041 125.938C50.5866 125.938 36.1769 120.457 25.0497 110.492H25.0456Z" fill="#333333"/>
</g>
<defs>
<clipPath id="clip0">
<rect width="130" height="130" fill="white"/>
</clipPath>
</defs>
</svg>
