<svg width="134" height="108" viewBox="0 0 134 108" fill="none" xmlns="http://www.w3.org/2000/svg">
<path d="M2 2V0H0V2H2ZM132 2H134V0H132V2ZM132 106V108H134V106H132ZM2 106H0V108H2V106ZM17.8554 3.2443C17.8554 2.13973 16.96 1.2443 15.8554 1.2443C14.7508 1.2443 13.8554 2.13973 13.8554 3.2443H17.8554ZM15.8554 14.6173V16.6173C16.96 16.6173 17.8554 15.7218 17.8554 14.6173H15.8554ZM2 12.6173C0.895431 12.6173 0 13.5127 0 14.6173C0 15.7218 0.895431 16.6173 2 16.6173V12.6173ZM132 16.6173C133.105 16.6173 134 15.7218 134 14.6173C134 13.5127 133.105 12.6173 132 12.6173V16.6173ZM31.7695 59.1968C30.9885 58.4156 29.7222 58.4155 28.9411 59.1965C28.1599 59.9775 28.1598 61.2438 28.9408 62.0249L31.7695 59.1968ZM102.438 61.8572C103.219 61.0761 103.219 59.8097 102.438 59.0288C101.657 58.2478 100.391 58.2479 99.6096 59.029L102.438 61.8572ZM2 4H132V0H2V4ZM130 2V106H134V2H130ZM132 104H2V108H132V104ZM4 106V2H0V106H4ZM13.8554 3.2443V14.6173H17.8554V3.2443H13.8554ZM15.8554 12.6173H2V16.6173H15.8554V12.6173ZM2 16.6173H132V12.6173H2V16.6173ZM46.9511 41.011L28.9409 59.0221L31.7694 61.8505L49.7796 43.8393L46.9511 41.011ZM49.7797 77.2105L31.7695 59.1968L28.9408 62.0249L46.951 80.0386L49.7797 77.2105ZM70.7614 36.0257L56.7864 83.0829L60.6209 84.2216L74.5958 37.1645L70.7614 36.0257ZM84.4281 79.8709L102.438 61.8572L99.6096 59.029L81.5994 77.0427L84.4281 79.8709ZM81.5995 43.6716L99.6097 61.6827L102.438 58.8544L84.428 40.8433L81.5995 43.6716Z" fill="#333333"/>
</svg>
